<svg width="1200" height="630" viewBox="0 0 1200 630" fill="none" xmlns="http://www.w3.org/2000/svg">
  <!-- Background -->
  <rect width="1200" height="630" fill="#f8faff"/>
  <ellipse cx="400" cy="-40" rx="550" ry="350" fill="url(#heroRadial)"/>

  <!-- Dot grid pattern -->
  <pattern id="dots" x="0" y="0" width="32" height="32" patternUnits="userSpaceOnUse">
    <circle cx="16" cy="16" r="0.8" fill="#0D9488" opacity="0.07"/>
  </pattern>
  <rect width="1200" height="630" fill="url(#dots)"/>

  <!-- Floating orbs -->
  <circle cx="100" cy="80" r="200" fill="url(#orbTopLeft)"/>
  <circle cx="180" cy="560" r="180" fill="url(#orbBottomLeft)"/>
  <circle cx="550" cy="350" r="100" fill="#0D9488" opacity="0.03" filter="url(#softBlur)"/>

  <!-- ========== NAVBAR ========== -->
  <rect y="0" width="1200" height="56" fill="white" fill-opacity="0.88"/>
  <line x1="0" y1="56" x2="1200" y2="56" stroke="#E2E8F0" stroke-width="1"/>

  <!-- Logo -->
  <g transform="translate(80, 12)">
    <rect width="32" height="32" rx="7" fill="url(#logoBg)"/>
    <g transform="translate(6, 4) scale(0.5)">
      <rect x="14" y="5" width="12" height="22" rx="2" fill="white" opacity="0.9"/>
      <rect x="16" y="8" width="8" height="4" rx="1" fill="white" opacity="0.5"/>
      <rect x="12" y="27" width="16" height="6" rx="1.5" fill="white" opacity="0.9"/>
    </g>
    <text x="42" y="22" font-family="system-ui, -apple-system, 'Segoe UI', sans-serif" font-size="17" font-weight="700" fill="#0F172A">Fuel Point</text>
  </g>

  <!-- Nav right -->
  <g transform="translate(940, 14)">
    <text x="0" y="18" font-family="system-ui, -apple-system, 'Segoe UI', sans-serif" font-size="14" font-weight="600" fill="#475569">How it works</text>
    <text x="110" y="18" font-family="system-ui, -apple-system, 'Segoe UI', sans-serif" font-size="14" font-weight="600" fill="#475569">Sign in</text>
    <rect x="170" y="0" width="100" height="30" rx="7" fill="url(#btnPrimaryGrad)"/>
    <text x="193" y="20" font-family="system-ui, -apple-system, 'Segoe UI', sans-serif" font-size="13" font-weight="600" fill="white">Get started</text>
  </g>

  <!-- ========== LEFT CONTENT (x: 80-550) ========== -->

  <!-- Badge pill -->
  <g transform="translate(210, 135)">
    <rect x="-130" y="-16" width="260" height="32" rx="16" fill="#0D9488" fill-opacity="0.08" stroke="#0D9488" stroke-width="0.8" stroke-opacity="0.15"/>
    <circle cx="-110" cy="0" r="5.5" fill="#10B981" opacity="0.3"/>
    <circle cx="-110" cy="0" r="3.5" fill="#10B981"/>
    <text x="0" y="4.5" text-anchor="middle" font-family="system-ui, -apple-system, 'Segoe UI', sans-serif" font-size="11.5" font-weight="700" fill="#0D9488" letter-spacing="1.2">PETROL PUMP MANAGEMENT</text>
  </g>

  <!-- Main heading line 1 -->
  <text x="80" y="210" font-family="system-ui, -apple-system, 'Segoe UI', sans-serif" font-size="48" font-weight="800" fill="#0F172A" letter-spacing="-1.5">Run your fuel station</text>

  <!-- Main heading line 2: gradient -->
  <text x="80" y="268" font-family="system-ui, -apple-system, 'Segoe UI', sans-serif" font-size="48" font-weight="800" fill="url(#titleGrad)" letter-spacing="-1.5">smarter, not harder</text>

  <!-- Subtitle -->
  <text x="80" y="310" font-family="system-ui, -apple-system, 'Segoe UI', sans-serif" font-size="16" fill="#64748B" font-weight="400">Sales, shifts, tanks, credits, and reports</text>
  <text x="80" y="332" font-family="system-ui, -apple-system, 'Segoe UI', sans-serif" font-size="16" fill="#64748B" font-weight="400">all in one place. Start your free trial today.</text>

  <!-- CTA Buttons -->
  <g transform="translate(80, 365)">
    <rect x="-4" y="-2" width="158" height="52" rx="14" fill="#0D9488" opacity="0.2" filter="url(#btnGlow)"/>
    <rect width="150" height="48" rx="11" fill="url(#btnPrimaryGrad)"/>
    <text x="22" y="29" font-family="system-ui, -apple-system, 'Segoe UI', sans-serif" font-size="15" font-weight="700" fill="white">Start free trial</text>
    <path d="M128 24l5-4-5-4" stroke="white" stroke-width="2" stroke-linecap="round" stroke-linejoin="round" fill="none"/>
  </g>
  <g transform="translate(248, 365)">
    <rect width="110" height="48" rx="11" fill="white" fill-opacity="0.5" stroke="#CBD5E1" stroke-width="1.5"/>
    <text x="55" y="29" text-anchor="middle" font-family="system-ui, -apple-system, 'Segoe UI', sans-serif" font-size="15" font-weight="600" fill="#475569">Sign in</text>
  </g>

  <!-- Mini feature pills -->
  <g transform="translate(80, 440)">
    <rect width="145" height="34" rx="10" fill="white" fill-opacity="0.7" stroke="#E2E8F0" stroke-width="0.8"/>
    <rect x="10" y="8" width="18" height="18" rx="5" fill="#6366F1" fill-opacity="0.1"/>
    <circle cx="19" cy="17" r="4" fill="#6366F1" opacity="0.5"/>
    <text x="36" y="23" font-family="system-ui, -apple-system, 'Segoe UI', sans-serif" font-size="11.5" font-weight="600" fill="#1E293B">Pump Mgmt</text>
  </g>
  <g transform="translate(235, 440)">
    <rect width="145" height="34" rx="10" fill="white" fill-opacity="0.7" stroke="#E2E8F0" stroke-width="0.8"/>
    <rect x="10" y="8" width="18" height="18" rx="5" fill="#10B981" fill-opacity="0.1"/>
    <rect x="14" y="14" width="3" height="8" rx="1" fill="#10B981" opacity="0.6"/>
    <rect x="18" y="11" width="3" height="11" rx="1" fill="#10B981" opacity="0.6"/>
    <text x="36" y="23" font-family="system-ui, -apple-system, 'Segoe UI', sans-serif" font-size="11.5" font-weight="600" fill="#1E293B">Live Dashboard</text>
  </g>
  <g transform="translate(80, 482)">
    <rect width="145" height="34" rx="10" fill="white" fill-opacity="0.7" stroke="#E2E8F0" stroke-width="0.8"/>
    <rect x="10" y="8" width="18" height="18" rx="5" fill="#F59E0B" fill-opacity="0.1"/>
    <rect x="14" y="12" width="10" height="8" rx="2" fill="#F59E0B" opacity="0.5"/>
    <text x="36" y="23" font-family="system-ui, -apple-system, 'Segoe UI', sans-serif" font-size="11.5" font-weight="600" fill="#1E293B">Credit Track</text>
  </g>
  <g transform="translate(235, 482)">
    <rect width="145" height="34" rx="10" fill="white" fill-opacity="0.7" stroke="#E2E8F0" stroke-width="0.8"/>
    <rect x="10" y="8" width="18" height="18" rx="5" fill="#EF4444" fill-opacity="0.1"/>
    <rect x="13" y="11" width="11" height="14" rx="2" fill="#EF4444" opacity="0.5"/>
    <text x="36" y="23" font-family="system-ui, -apple-system, 'Segoe UI', sans-serif" font-size="11.5" font-weight="600" fill="#1E293B">Auto Reports</text>
  </g>

  <!-- ========== RIGHT SIDE: DASHBOARD MOCKUP (x: 570-1150) ========== -->

  <!-- Dashboard container with shadow and rotation -->
  <g transform="translate(590, 80)" filter="url(#dashShadow)">
    <!-- Slight 3D perspective tilt -->
    <g transform="skewY(-1) skewX(1)">
      <!-- Main dashboard card -->
      <rect width="560" height="480" rx="16" fill="white" stroke="#E2E8F0" stroke-width="1"/>

      <!-- Sidebar -->
      <rect width="140" height="480" rx="16" fill="#0F172A"/>
      <!-- Fix right corners of sidebar -->
      <rect x="16" y="0" width="124" height="480" fill="#0F172A"/>

      <!-- Sidebar logo area -->
      <rect x="16" y="16" width="108" height="36" rx="8" fill="white" fill-opacity="0.08"/>
      <rect x="26" y="24" width="20" height="20" rx="5" fill="url(#logoBg)"/>
      <text x="52" y="38" font-family="system-ui, -apple-system, 'Segoe UI', sans-serif" font-size="11" font-weight="700" fill="white" opacity="0.9">Fuel Point</text>

      <!-- Sidebar menu items -->
      <rect x="16" y="68" width="108" height="32" rx="8" fill="#0D9488" fill-opacity="0.2"/>
      <rect x="28" y="78" width="14" height="12" rx="3" fill="#0D9488" opacity="0.7"/>
      <text x="50" y="88" font-family="system-ui, -apple-system, 'Segoe UI', sans-serif" font-size="11" font-weight="600" fill="#5EEAD4">Dashboard</text>

      <rect x="28" y="118" width="14" height="12" rx="3" fill="white" opacity="0.15"/>
      <text x="50" y="128" font-family="system-ui, -apple-system, 'Segoe UI', sans-serif" font-size="11" font-weight="500" fill="white" opacity="0.5">Sales</text>

      <rect x="28" y="148" width="14" height="12" rx="3" fill="white" opacity="0.15"/>
      <text x="50" y="158" font-family="system-ui, -apple-system, 'Segoe UI', sans-serif" font-size="11" font-weight="500" fill="white" opacity="0.5">Pumps</text>

      <rect x="28" y="178" width="14" height="12" rx="3" fill="white" opacity="0.15"/>
      <text x="50" y="188" font-family="system-ui, -apple-system, 'Segoe UI', sans-serif" font-size="11" font-weight="500" fill="white" opacity="0.5">Tanks</text>

      <rect x="28" y="208" width="14" height="12" rx="3" fill="white" opacity="0.15"/>
      <text x="50" y="218" font-family="system-ui, -apple-system, 'Segoe UI', sans-serif" font-size="11" font-weight="500" fill="white" opacity="0.5">Credits</text>

      <rect x="28" y="238" width="14" height="12" rx="3" fill="white" opacity="0.15"/>
      <text x="50" y="248" font-family="system-ui, -apple-system, 'Segoe UI', sans-serif" font-size="11" font-weight="500" fill="white" opacity="0.5">Shifts</text>

      <rect x="28" y="268" width="14" height="12" rx="3" fill="white" opacity="0.15"/>
      <text x="50" y="278" font-family="system-ui, -apple-system, 'Segoe UI', sans-serif" font-size="11" font-weight="500" fill="white" opacity="0.5">Reports</text>

      <!-- Sidebar bottom user -->
      <rect x="16" y="432" width="108" height="36" rx="8" fill="white" fill-opacity="0.06"/>
      <circle cx="36" cy="450" r="12" fill="#0D9488" opacity="0.4"/>
      <text x="52" y="447" font-family="system-ui, -apple-system, 'Segoe UI', sans-serif" font-size="10" font-weight="600" fill="white" opacity="0.8">John Doe</text>
      <text x="52" y="459" font-family="system-ui, -apple-system, 'Segoe UI', sans-serif" font-size="9" font-weight="400" fill="white" opacity="0.4">Owner</text>

      <!-- ===== MAIN CONTENT AREA ===== -->

      <!-- Header -->
      <text x="160" y="40" font-family="system-ui, -apple-system, 'Segoe UI', sans-serif" font-size="16" font-weight="700" fill="#0F172A">Dashboard</text>
      <text x="160" y="56" font-family="system-ui, -apple-system, 'Segoe UI', sans-serif" font-size="10" font-weight="400" fill="#94A3B8">Welcome back, John</text>

      <!-- Top stat cards row -->
      <!-- Card 1: Today's Sales -->
      <g transform="translate(160, 72)">
        <rect width="120" height="72" rx="10" fill="#F0FDF4" stroke="#BBF7D0" stroke-width="0.5"/>
        <text x="12" y="22" font-family="system-ui, -apple-system, 'Segoe UI', sans-serif" font-size="9" font-weight="500" fill="#64748B">Today's Sales</text>
        <text x="12" y="46" font-family="system-ui, -apple-system, 'Segoe UI', sans-serif" font-size="20" font-weight="800" fill="#0F172A">$12,458</text>
        <text x="12" y="62" font-family="system-ui, -apple-system, 'Segoe UI', sans-serif" font-size="9" font-weight="600" fill="#10B981">+12.5%</text>
        <!-- Mini spark line -->
        <polyline points="70,55 78,48 86,52 94,40 102,44 110,35" stroke="#10B981" stroke-width="1.5" fill="none" stroke-linecap="round"/>
      </g>

      <!-- Card 2: Active Pumps -->
      <g transform="translate(290, 72)">
        <rect width="120" height="72" rx="10" fill="#EFF6FF" stroke="#BFDBFE" stroke-width="0.5"/>
        <text x="12" y="22" font-family="system-ui, -apple-system, 'Segoe UI', sans-serif" font-size="9" font-weight="500" fill="#64748B">Active Pumps</text>
        <text x="12" y="46" font-family="system-ui, -apple-system, 'Segoe UI', sans-serif" font-size="20" font-weight="800" fill="#0F172A">8/10</text>
        <text x="12" y="62" font-family="system-ui, -apple-system, 'Segoe UI', sans-serif" font-size="9" font-weight="600" fill="#3B82F6">2 idle</text>
        <!-- Pump dots -->
        <g transform="translate(72, 38)">
          <circle cx="0" cy="0" r="4" fill="#10B981"/>
          <circle cx="12" cy="0" r="4" fill="#10B981"/>
          <circle cx="24" cy="0" r="4" fill="#10B981"/>
          <circle cx="36" cy="0" r="4" fill="#10B981"/>
          <circle cx="0" cy="12" r="4" fill="#10B981"/>
          <circle cx="12" cy="12" r="4" fill="#10B981"/>
          <circle cx="24" cy="12" r="4" fill="#10B981"/>
          <circle cx="36" cy="12" r="4" fill="#10B981"/>
          <circle cx="0" cy="24" r="4" fill="#CBD5E1"/>
          <circle cx="12" cy="24" r="4" fill="#CBD5E1"/>
        </g>
      </g>

      <!-- Card 3: Tank Levels -->
      <g transform="translate(420, 72)">
        <rect width="120" height="72" rx="10" fill="#FFF7ED" stroke="#FED7AA" stroke-width="0.5"/>
        <text x="12" y="22" font-family="system-ui, -apple-system, 'Segoe UI', sans-serif" font-size="9" font-weight="500" fill="#64748B">Tank Levels</text>
        <text x="12" y="46" font-family="system-ui, -apple-system, 'Segoe UI', sans-serif" font-size="20" font-weight="800" fill="#0F172A">78%</text>
        <text x="12" y="62" font-family="system-ui, -apple-system, 'Segoe UI', sans-serif" font-size="9" font-weight="600" fill="#F59E0B">Normal</text>
        <!-- Tank bars -->
        <g transform="translate(72, 30)">
          <rect x="0" y="10" width="10" height="28" rx="3" fill="#FED7AA"/>
          <rect x="0" y="16" width="10" height="22" rx="3" fill="#F59E0B" opacity="0.7"/>
          <rect x="14" y="5" width="10" height="33" rx="3" fill="#FED7AA"/>
          <rect x="14" y="10" width="10" height="28" rx="3" fill="#F59E0B" opacity="0.7"/>
          <rect x="28" y="15" width="10" height="23" rx="3" fill="#FED7AA"/>
          <rect x="28" y="22" width="10" height="16" rx="3" fill="#F59E0B" opacity="0.7"/>
        </g>
      </g>

      <!-- ===== CHART AREA ===== -->
      <g transform="translate(160, 160)">
        <rect width="255" height="160" rx="12" fill="white" stroke="#E2E8F0" stroke-width="0.8"/>
        <text x="14" y="22" font-family="system-ui, -apple-system, 'Segoe UI', sans-serif" font-size="11" font-weight="700" fill="#0F172A">Weekly Revenue</text>
        <text x="14" y="36" font-family="system-ui, -apple-system, 'Segoe UI', sans-serif" font-size="9" font-weight="400" fill="#94A3B8">Last 7 days</text>

        <!-- Chart grid lines -->
        <line x1="14" y1="55" x2="241" y2="55" stroke="#F1F5F9" stroke-width="0.5"/>
        <line x1="14" y1="80" x2="241" y2="80" stroke="#F1F5F9" stroke-width="0.5"/>
        <line x1="14" y1="105" x2="241" y2="105" stroke="#F1F5F9" stroke-width="0.5"/>
        <line x1="14" y1="130" x2="241" y2="130" stroke="#F1F5F9" stroke-width="0.5"/>

        <!-- Area chart -->
        <path d="M20,110 L52,85 L84,95 L116,70 L148,60 L180,50 L212,55 L235,48" stroke="url(#chartLine)" stroke-width="2" fill="none" stroke-linecap="round"/>
        <path d="M20,110 L52,85 L84,95 L116,70 L148,60 L180,50 L212,55 L235,48 L235,140 L20,140 Z" fill="url(#chartFill)" opacity="0.3"/>

        <!-- Chart dots -->
        <circle cx="52" cy="85" r="3" fill="white" stroke="#0D9488" stroke-width="1.5"/>
        <circle cx="116" cy="70" r="3" fill="white" stroke="#0D9488" stroke-width="1.5"/>
        <circle cx="180" cy="50" r="3" fill="white" stroke="#0D9488" stroke-width="1.5"/>
        <circle cx="235" cy="48" r="4" fill="#0D9488"/>

        <!-- Day labels -->
        <text x="20" y="150" font-family="system-ui, -apple-system, 'Segoe UI', sans-serif" font-size="8" fill="#94A3B8">Mon</text>
        <text x="52" y="150" font-family="system-ui, -apple-system, 'Segoe UI', sans-serif" font-size="8" fill="#94A3B8">Tue</text>
        <text x="84" y="150" font-family="system-ui, -apple-system, 'Segoe UI', sans-serif" font-size="8" fill="#94A3B8">Wed</text>
        <text x="116" y="150" font-family="system-ui, -apple-system, 'Segoe UI', sans-serif" font-size="8" fill="#94A3B8">Thu</text>
        <text x="148" y="150" font-family="system-ui, -apple-system, 'Segoe UI', sans-serif" font-size="8" fill="#94A3B8">Fri</text>
        <text x="180" y="150" font-family="system-ui, -apple-system, 'Segoe UI', sans-serif" font-size="8" fill="#94A3B8">Sat</text>
        <text x="212" y="150" font-family="system-ui, -apple-system, 'Segoe UI', sans-serif" font-size="8" fill="#94A3B8">Sun</text>
      </g>

      <!-- ===== RIGHT PANEL: Recent Sales ===== -->
      <g transform="translate(425, 160)">
        <rect width="120" height="160" rx="12" fill="white" stroke="#E2E8F0" stroke-width="0.8"/>
        <text x="12" y="22" font-family="system-ui, -apple-system, 'Segoe UI', sans-serif" font-size="11" font-weight="700" fill="#0F172A">Recent Sales</text>

        <!-- Sale items -->
        <g transform="translate(12, 38)">
          <circle cx="10" cy="10" r="10" fill="#DBEAFE"/>
          <text x="10" y="13" text-anchor="middle" font-family="system-ui, -apple-system, 'Segoe UI', sans-serif" font-size="8" font-weight="700" fill="#3B82F6">P1</text>
          <text x="28" y="8" font-family="system-ui, -apple-system, 'Segoe UI', sans-serif" font-size="9" font-weight="600" fill="#0F172A">Pump 1</text>
          <text x="28" y="18" font-family="system-ui, -apple-system, 'Segoe UI', sans-serif" font-size="8" fill="#94A3B8">$245.50</text>
        </g>
        <g transform="translate(12, 68)">
          <circle cx="10" cy="10" r="10" fill="#D1FAE5"/>
          <text x="10" y="13" text-anchor="middle" font-family="system-ui, -apple-system, 'Segoe UI', sans-serif" font-size="8" font-weight="700" fill="#10B981">P3</text>
          <text x="28" y="8" font-family="system-ui, -apple-system, 'Segoe UI', sans-serif" font-size="9" font-weight="600" fill="#0F172A">Pump 3</text>
          <text x="28" y="18" font-family="system-ui, -apple-system, 'Segoe UI', sans-serif" font-size="8" fill="#94A3B8">$189.00</text>
        </g>
        <g transform="translate(12, 98)">
          <circle cx="10" cy="10" r="10" fill="#FEF3C7"/>
          <text x="10" y="13" text-anchor="middle" font-family="system-ui, -apple-system, 'Segoe UI', sans-serif" font-size="8" font-weight="700" fill="#F59E0B">P5</text>
          <text x="28" y="8" font-family="system-ui, -apple-system, 'Segoe UI', sans-serif" font-size="9" font-weight="600" fill="#0F172A">Pump 5</text>
          <text x="28" y="18" font-family="system-ui, -apple-system, 'Segoe UI', sans-serif" font-size="8" fill="#94A3B8">$312.75</text>
        </g>
        <g transform="translate(12, 128)">
          <circle cx="10" cy="10" r="10" fill="#FCE7F3"/>
          <text x="10" y="13" text-anchor="middle" font-family="system-ui, -apple-system, 'Segoe UI', sans-serif" font-size="8" font-weight="700" fill="#EC4899">P2</text>
          <text x="28" y="8" font-family="system-ui, -apple-system, 'Segoe UI', sans-serif" font-size="9" font-weight="600" fill="#0F172A">Pump 2</text>
          <text x="28" y="18" font-family="system-ui, -apple-system, 'Segoe UI', sans-serif" font-size="8" fill="#94A3B8">$156.25</text>
        </g>
      </g>

      <!-- ===== BOTTOM: Shift & Credit summary ===== -->
      <g transform="translate(160, 336)">
        <rect width="186" height="70" rx="12" fill="white" stroke="#E2E8F0" stroke-width="0.8"/>
        <text x="14" y="22" font-family="system-ui, -apple-system, 'Segoe UI', sans-serif" font-size="11" font-weight="700" fill="#0F172A">Current Shift</text>
        <rect x="14" y="32" width="60" height="6" rx="3" fill="#E2E8F0"/>
        <rect x="14" y="32" width="42" height="6" rx="3" fill="#0D9488"/>
        <text x="14" y="52" font-family="system-ui, -apple-system, 'Segoe UI', sans-serif" font-size="9" font-weight="500" fill="#64748B">6h 20m / 8h</text>
        <text x="14" y="64" font-family="system-ui, -apple-system, 'Segoe UI', sans-serif" font-size="9" font-weight="600" fill="#0D9488">Ahmed - Day Shift</text>
      </g>

      <g transform="translate(356, 336)">
        <rect width="186" height="70" rx="12" fill="white" stroke="#E2E8F0" stroke-width="0.8"/>
        <text x="14" y="22" font-family="system-ui, -apple-system, 'Segoe UI', sans-serif" font-size="11" font-weight="700" fill="#0F172A">Credit Balance</text>
        <text x="14" y="46" font-family="system-ui, -apple-system, 'Segoe UI', sans-serif" font-size="18" font-weight="800" fill="#0F172A">$4,280</text>
        <text x="14" y="62" font-family="system-ui, -apple-system, 'Segoe UI', sans-serif" font-size="9" font-weight="500" fill="#F59E0B">12 pending</text>
        <text x="86" y="62" font-family="system-ui, -apple-system, 'Segoe UI', sans-serif" font-size="9" font-weight="500" fill="#10B981">8 cleared</text>
      </g>

      <!-- Bottom status bar -->
      <g transform="translate(160, 420)">
        <rect width="382" height="44" rx="10" fill="#F0FDF9" stroke="#99F6E4" stroke-width="0.5"/>
        <circle cx="20" cy="22" r="5" fill="#10B981" opacity="0.3"/>
        <circle cx="20" cy="22" r="3" fill="#10B981"/>
        <text x="32" y="19" font-family="system-ui, -apple-system, 'Segoe UI', sans-serif" font-size="10" font-weight="600" fill="#0F172A">All systems operational</text>
        <text x="32" y="32" font-family="system-ui, -apple-system, 'Segoe UI', sans-serif" font-size="9" font-weight="400" fill="#64748B">Last sync: 2 min ago  |  8 pumps active  |  3 staff online</text>
      </g>
    </g>
  </g>

  <!-- Decorative glow behind dashboard -->
  <circle cx="870" cy="320" r="280" fill="url(#dashGlow)" opacity="0.5"/>

  <!-- ========== BOTTOM BRANDING BAR ========== -->
  <rect y="580" width="1200" height="50" fill="url(#bottomGrad)"/>
  <text x="600" y="610" text-anchor="middle" font-family="system-ui, -apple-system, 'Segoe UI', sans-serif" font-size="12.5" fill="white" font-weight="500" opacity="0.9" letter-spacing="0.5">fuelpoint.app  |  Sales  |  Shifts  |  Tanks  |  Credits  |  Reports  |  Dashboard</text>

  <!-- ========== DEFINITIONS ========== -->
  <defs>
    <radialGradient id="heroRadial" cx="0.5" cy="0.5" rx="0.5" ry="0.5">
      <stop stop-color="#0D9488" stop-opacity="0.12"/>
      <stop offset="0.7" stop-color="#0D9488" stop-opacity="0.03"/>
      <stop offset="1" stop-color="#0D9488" stop-opacity="0"/>
    </radialGradient>

    <radialGradient id="orbTopLeft" cx="0.5" cy="0.5" r="0.5">
      <stop stop-color="#0D9488" stop-opacity="0.1"/>
      <stop offset="0.6" stop-color="#14B8A6" stop-opacity="0.03"/>
      <stop offset="1" stop-color="#0D9488" stop-opacity="0"/>
    </radialGradient>

    <radialGradient id="orbBottomLeft" cx="0.5" cy="0.5" r="0.5">
      <stop stop-color="#5EEAD4" stop-opacity="0.1"/>
      <stop offset="0.7" stop-color="#0D9488" stop-opacity="0.03"/>
      <stop offset="1" stop-color="#0D9488" stop-opacity="0"/>
    </radialGradient>

    <radialGradient id="dashGlow" cx="0.5" cy="0.5" r="0.5">
      <stop stop-color="#0D9488" stop-opacity="0.08"/>
      <stop offset="0.5" stop-color="#14B8A6" stop-opacity="0.03"/>
      <stop offset="1" stop-color="#0D9488" stop-opacity="0"/>
    </radialGradient>

    <linearGradient id="titleGrad" x1="80" y1="240" x2="500" y2="280" gradientUnits="userSpaceOnUse">
      <stop stop-color="#0D9488"/>
      <stop offset="0.4" stop-color="#14B8A6"/>
      <stop offset="0.7" stop-color="#2DD4BF"/>
      <stop offset="1" stop-color="#0D9488"/>
    </linearGradient>

    <linearGradient id="btnPrimaryGrad" x1="0" y1="0" x2="1" y2="1">
      <stop stop-color="#0D9488"/>
      <stop offset="1" stop-color="#0F766E"/>
    </linearGradient>

    <linearGradient id="logoBg" x1="0" y1="0" x2="32" y2="32" gradientUnits="userSpaceOnUse">
      <stop stop-color="#0D9488"/>
      <stop offset="1" stop-color="#0F766E"/>
    </linearGradient>

    <linearGradient id="bottomGrad" x1="0" y1="0" x2="1200" y2="0" gradientUnits="userSpaceOnUse">
      <stop stop-color="#0F766E"/>
      <stop offset="0.5" stop-color="#0D9488"/>
      <stop offset="1" stop-color="#0F766E"/>
    </linearGradient>

    <linearGradient id="chartLine" x1="20" y1="0" x2="235" y2="0" gradientUnits="userSpaceOnUse">
      <stop stop-color="#14B8A6"/>
      <stop offset="1" stop-color="#0D9488"/>
    </linearGradient>

    <linearGradient id="chartFill" x1="127" y1="48" x2="127" y2="140" gradientUnits="userSpaceOnUse">
      <stop stop-color="#0D9488" stop-opacity="0.4"/>
      <stop offset="1" stop-color="#0D9488" stop-opacity="0"/>
    </linearGradient>

    <filter id="softBlur">
      <feGaussianBlur stdDeviation="30"/>
    </filter>

    <filter id="btnGlow" x="-50%" y="-50%" width="200%" height="200%">
      <feGaussianBlur stdDeviation="12" result="blur"/>
      <feMerge>
        <feMergeNode in="blur"/>
        <feMergeNode in="SourceGraphic"/>
      </feMerge>
    </filter>

    <filter id="dashShadow" x="-5%" y="-5%" width="115%" height="115%">
      <feDropShadow dx="0" dy="12" stdDeviation="24" flood-color="#0F172A" flood-opacity="0.08"/>
      <feDropShadow dx="0" dy="4" stdDeviation="8" flood-color="#0D9488" flood-opacity="0.06"/>
    </filter>
  </defs>
</svg>