<svg width="75" height="28" viewBox="0 0 75 28" fill="none" xmlns="http://www.w3.org/2000/svg">
<path d="M40.4808 0.369161H41.7403C42.3049 0.369161 42.8478 0.361924 43.369 0.347447C43.8902 0.33297 44.3389 0.318493 44.7153 0.304016L44.6068 0.738325C44.1146 0.752801 43.7309 0.81071 43.4559 0.912049C43.1808 0.99891 42.9636 1.17263 42.8044 1.43322C42.6596 1.67933 42.5148 2.0702 42.3701 2.60585L39.5036 13.3767C39.3733 13.8979 39.3154 14.2888 39.3299 14.5493C39.3589 14.8099 39.4892 14.9837 39.7208 15.0705C39.9524 15.1574 40.3071 15.2153 40.7849 15.2442L40.698 15.6786C40.3216 15.6496 39.8728 15.6351 39.3516 15.6351C38.8449 15.6206 38.3093 15.6134 37.7447 15.6134C37.1367 15.6134 36.5576 15.6206 36.0075 15.6351C35.4718 15.6351 35.0375 15.6496 34.7045 15.6786L34.7914 15.2442C35.2981 15.2153 35.6817 15.1574 35.9423 15.0705C36.2174 14.9837 36.4345 14.8099 36.5938 14.5493C36.753 14.2888 36.8978 13.8979 37.0281 13.3767L40.1768 1.67209L31.1649 15.7871H30.6872L29.1237 1.8241L26.1486 13.0727C26.0328 13.5649 25.9749 13.9703 25.9749 14.2888C25.9894 14.6073 26.1269 14.8389 26.3875 14.9837C26.6626 15.1284 27.0896 15.2153 27.6687 15.2442L27.5601 15.6786C27.4009 15.6641 27.1837 15.6568 26.9087 15.6568C26.6481 15.6424 26.373 15.6351 26.0835 15.6351C25.8084 15.6206 25.5478 15.6134 25.3017 15.6134C24.9253 15.6134 24.5489 15.6206 24.1725 15.6351C23.7961 15.6351 23.4849 15.6496 23.2388 15.6786L23.3473 15.2442C23.854 15.2153 24.2449 15.1284 24.52 14.9837C24.8095 14.8389 25.0412 14.6073 25.2149 14.2888C25.3886 13.9703 25.5334 13.5649 25.6492 13.0727L28.4505 2.60585C28.5952 2.0702 28.6532 1.67933 28.6242 1.43322C28.5952 1.17263 28.465 0.99891 28.2333 0.912049C28.0162 0.81071 27.6615 0.752801 27.1693 0.738325L27.2778 0.304016C27.5529 0.318493 27.8859 0.33297 28.2768 0.347447C28.6821 0.361924 29.1092 0.369161 29.558 0.369161C29.9054 0.369161 30.2529 0.361924 30.6003 0.347447C30.9478 0.33297 31.2445 0.318493 31.4906 0.304016L32.7067 12.595L40.4808 0.369161Z" fill="url(#paint0_linear_1671_57139)"/>
<path d="M24.5975 0.152009C24.4527 0.52841 24.2573 1.07853 24.0112 1.80238C23.765 2.51175 23.5334 3.43828 23.3163 4.58196H22.882C22.9254 4.37928 22.9543 4.16937 22.9688 3.95221C22.9978 3.73506 23.0122 3.53238 23.0122 3.34418C23.0122 2.80853 22.8964 2.32355 22.6648 1.88924C22.4476 1.44046 22.1147 1.09301 21.6659 0.846903C21.2171 0.586318 20.6308 0.456025 19.9069 0.456025C19.0962 0.456025 18.4086 0.66594 17.844 1.08577C17.2938 1.5056 17.0188 2.17155 17.0188 3.08359C17.0188 3.61924 17.1491 4.12594 17.4097 4.60368C17.6702 5.06694 17.996 5.51572 18.3869 5.95003C18.7922 6.38434 19.2265 6.81865 19.6898 7.25296C20.153 7.68727 20.5874 8.13606 20.9927 8.59932C21.3981 9.0481 21.731 9.52584 21.9916 10.0325C22.2522 10.5392 22.3825 11.0966 22.3825 11.7046C22.3825 12.4574 22.2015 13.1089 21.8396 13.659C21.4922 14.1947 21.0361 14.6362 20.4715 14.9837C19.9214 15.3166 19.3134 15.5627 18.6474 15.722C17.996 15.8957 17.3517 15.9826 16.7148 15.9826C16.1067 15.9826 15.5928 15.9319 15.173 15.8306C14.7676 15.7292 14.4274 15.5989 14.1523 15.4397C13.8773 15.2804 13.6312 15.1284 13.414 14.9837C13.2548 14.8678 13.1028 14.7882 12.958 14.7448C12.8277 14.6869 12.7191 14.6579 12.6323 14.6579C12.4441 14.6579 12.2848 14.752 12.1545 14.9402C12.0387 15.1284 11.9012 15.4252 11.7419 15.8306H11.3076C11.4379 15.5121 11.5754 15.1429 11.7202 14.7231C11.865 14.3032 12.0242 13.7676 12.1979 13.1161C12.3717 12.4502 12.5671 11.6178 12.7843 10.6189H13.2186C13.1462 10.9084 13.0883 11.1979 13.0449 11.4875C13.0159 11.777 13.0087 12.0666 13.0231 12.3561C13.0666 13.355 13.3706 14.1368 13.9352 14.7014C14.5143 15.2515 15.3901 15.5265 16.5628 15.5265C17.5182 15.5265 18.2638 15.3166 18.7994 14.8968C19.3496 14.477 19.6246 13.8327 19.6246 12.9641C19.6246 12.3561 19.5016 11.8132 19.2555 11.3355C19.0238 10.8432 18.7198 10.3872 18.3434 9.96739C17.9815 9.53308 17.5906 9.11325 17.1708 8.7079C16.751 8.30254 16.3528 7.88271 15.9764 7.4484C15.6145 7.01409 15.3177 6.53635 15.0861 6.01518C14.8545 5.49401 14.7387 4.91493 14.7387 4.27794C14.7387 3.56857 14.8834 2.94606 15.173 2.41042C15.4625 1.87477 15.8461 1.43322 16.3239 1.08577C16.8016 0.723848 17.33 0.456025 17.9091 0.282301C18.5027 0.0941004 19.0962 0 19.6898 0C20.3847 0 20.9638 0.0868618 21.427 0.260586C21.9048 0.419832 22.3391 0.644225 22.7299 0.933765C22.8892 1.04958 23.0267 1.14368 23.1425 1.21607C23.2728 1.27397 23.3742 1.30293 23.4466 1.30293C23.6492 1.30293 23.8881 0.919288 24.1632 0.152009H24.5975Z" fill="url(#paint1_linear_1671_57139)"/>
<path d="M10.8143 3.69163C11.292 2.9533 11.5599 2.37422 11.6178 1.95439C11.6902 1.53456 11.5816 1.23054 11.292 1.04234C11.017 0.85414 10.5754 0.752801 9.96739 0.738325L10.076 0.304016C10.3366 0.318493 10.6116 0.33297 10.9012 0.347447C11.2052 0.347447 11.5164 0.354685 11.8349 0.369161C12.1534 0.369161 12.4357 0.369161 12.6818 0.369161C13.0437 0.369161 13.3478 0.361924 13.5939 0.347447C13.8545 0.33297 14.1006 0.318493 14.3322 0.304016L14.2236 0.738325C13.992 0.796233 13.7531 0.897572 13.507 1.04234C13.2609 1.17263 13.0003 1.37531 12.7253 1.65037C12.4647 1.92544 12.1896 2.2946 11.9001 2.75786L3.43104 15.7871C3.3297 15.7871 3.22836 15.7871 3.12702 15.7871C3.04016 15.7871 2.94606 15.7871 2.84472 15.7871L1.1292 2.12811C1.0713 1.60694 0.919287 1.25226 0.673179 1.06406C0.42707 0.861379 0.202677 0.752801 0 0.738325L0.108577 0.304016C0.42707 0.318493 0.825187 0.33297 1.30293 0.347447C1.78067 0.361924 2.25117 0.369161 2.71443 0.369161C3.32246 0.369161 3.85811 0.361924 4.32137 0.347447C4.79911 0.33297 5.21171 0.318493 5.55915 0.304016L5.45058 0.738325C4.98731 0.752801 4.61815 0.803471 4.34309 0.890332C4.06803 0.977194 3.87983 1.14368 3.77849 1.38979C3.67715 1.6359 3.65543 2.02677 3.71334 2.56242L4.92941 13.0076L4.64711 13.1596L10.8143 3.69163Z" fill="url(#paint2_linear_1671_57139)"/>
<path d="M73.4803 26.5718C73.1518 26.5718 72.8852 26.4671 72.6805 26.2576C72.4806 26.0481 72.3806 25.7649 72.3806 25.4078V22.0302H73.0947V25.3436C73.0947 25.5388 73.1399 25.684 73.2304 25.7792C73.3256 25.8696 73.4708 25.9148 73.666 25.9148H74.0659L74.1016 25.9934V26.5718H73.4803ZM71.7665 23.6369V22.9799H74.1016V23.6369H71.7665Z" fill="white"/>
<path d="M68.1405 26.5718V22.9799H68.8189V23.9439L68.6261 23.8797C68.6975 23.6749 68.8046 23.4988 68.9474 23.3512C69.0903 23.1989 69.2569 23.0822 69.4473 23.0013C69.6425 22.9204 69.8496 22.8799 70.0686 22.8799C70.3256 22.8799 70.5565 22.9347 70.7612 23.0442C70.966 23.1537 71.1278 23.3179 71.2468 23.5369C71.3658 23.7511 71.4254 24.0201 71.4254 24.3438V26.5718H70.7113V24.5438C70.7113 24.301 70.6756 24.1082 70.6041 23.9653C70.5327 23.8178 70.4351 23.7106 70.3114 23.644C70.1923 23.5773 70.0519 23.544 69.89 23.544C69.7282 23.544 69.5663 23.5845 69.4045 23.6654C69.2474 23.7464 69.1164 23.8725 69.0117 24.0439C68.907 24.2153 68.8546 24.439 68.8546 24.7151V26.5718H68.1405Z" fill="white"/>
<path d="M65.6887 26.6718C65.3316 26.6718 65.0151 26.5932 64.7389 26.4361C64.4676 26.2743 64.2557 26.0505 64.1034 25.7649C63.951 25.4792 63.8749 25.1484 63.8749 24.7723C63.8749 24.3962 63.9487 24.0677 64.0963 23.7868C64.2486 23.5012 64.4581 23.2798 64.7247 23.1227C64.996 22.9608 65.3078 22.8799 65.6601 22.8799C66.0077 22.8799 66.31 22.9608 66.567 23.1227C66.8289 23.2846 67.0312 23.5131 67.174 23.8082C67.3216 24.0986 67.3954 24.439 67.3954 24.8294V24.9365L67.2883 25.0436H64.2391V24.4152H67.0526L66.6884 24.558C66.6789 24.3438 66.6265 24.1605 66.5313 24.0082C66.4409 23.8558 66.3195 23.7392 66.1671 23.6583C66.0196 23.5726 65.8529 23.5297 65.6673 23.5297C65.4673 23.5297 65.284 23.5773 65.1174 23.6726C64.9508 23.7678 64.8199 23.9011 64.7247 24.0725C64.6342 24.2391 64.589 24.4343 64.589 24.658V24.8722C64.589 25.0912 64.6366 25.2888 64.7318 25.465C64.827 25.6363 64.9579 25.772 65.1246 25.872C65.2912 25.972 65.4792 26.0219 65.6887 26.0219C65.8886 26.0219 66.0648 25.972 66.2171 25.872C66.3742 25.7673 66.498 25.6292 66.5885 25.4578H66.6741L67.2526 25.7077C67.1145 26.0077 66.9098 26.2433 66.6384 26.4147C66.3671 26.5861 66.0505 26.6718 65.6887 26.6718Z" fill="white"/>
<path d="M57.4639 26.5718V22.9799H58.1423V23.9154L57.9994 23.7797C58.0709 23.594 58.1732 23.4345 58.3065 23.3012C58.4398 23.1679 58.5945 23.0656 58.7707 22.9942C58.9516 22.918 59.1468 22.8799 59.3562 22.8799C59.6609 22.8799 59.9275 22.9656 60.156 23.137C60.3893 23.3084 60.544 23.5583 60.6202 23.8868L60.3631 23.8797C60.4345 23.6749 60.5416 23.4988 60.6844 23.3512C60.832 23.1989 61.0058 23.0822 61.2057 23.0013C61.4105 22.9204 61.6271 22.8799 61.8556 22.8799C62.0984 22.8799 62.3197 22.9347 62.5197 23.0442C62.7196 23.1537 62.8767 23.3179 62.991 23.5369C63.11 23.7511 63.1695 24.0201 63.1695 24.3438V26.5718H62.4554V24.5152C62.4554 24.2772 62.4197 24.0891 62.3483 23.9511C62.2817 23.8082 62.1888 23.7059 62.0698 23.644C61.9555 23.5773 61.8222 23.544 61.6699 23.544C61.5271 23.544 61.3771 23.5845 61.22 23.6654C61.0677 23.7416 60.9391 23.8654 60.8344 24.0368C60.7297 24.2081 60.6773 24.4343 60.6773 24.7151V26.5718H59.9632V24.5152C59.9632 24.2772 59.9275 24.0891 59.8561 23.9511C59.7847 23.8082 59.6895 23.7059 59.5705 23.644C59.4562 23.5773 59.3253 23.544 59.1777 23.544C59.0301 23.544 58.8778 23.5845 58.7207 23.6654C58.5683 23.7464 58.4398 23.8725 58.3351 24.0439C58.2303 24.2105 58.178 24.4343 58.178 24.7151V26.5718H57.4639Z" fill="white"/>
<path d="M55.0121 26.6718C54.655 26.6718 54.3384 26.5932 54.0623 26.4361C53.7909 26.2743 53.5791 26.0505 53.4268 25.7649C53.2744 25.4792 53.1982 25.1484 53.1982 24.7723C53.1982 24.3962 53.272 24.0677 53.4196 23.7868C53.572 23.5012 53.7814 23.2798 54.048 23.1227C54.3194 22.9608 54.6312 22.8799 54.9835 22.8799C55.331 22.8799 55.6333 22.9608 55.8904 23.1227C56.1522 23.2846 56.3546 23.5131 56.4974 23.8082C56.645 24.0986 56.7187 24.439 56.7187 24.8294V24.9365L56.6116 25.0436H53.5624V24.4152H56.376L56.0118 24.558C56.0023 24.3438 55.9499 24.1605 55.8547 24.0082C55.7642 23.8558 55.6428 23.7392 55.4905 23.6583C55.3429 23.5726 55.1763 23.5297 54.9906 23.5297C54.7907 23.5297 54.6074 23.5773 54.4408 23.6726C54.2742 23.7678 54.1432 23.9011 54.048 24.0725C53.9576 24.2391 53.9123 24.4343 53.9123 24.658V24.8722C53.9123 25.0912 53.96 25.2888 54.0552 25.465C54.1504 25.6363 54.2813 25.772 54.4479 25.872C54.6145 25.972 54.8026 26.0219 55.0121 26.0219C55.212 26.0219 55.3881 25.972 55.5405 25.872C55.6976 25.7673 55.8214 25.6292 55.9118 25.4578H55.9975L56.5759 25.7077C56.4379 26.0077 56.2332 26.2433 55.9618 26.4147C55.6904 26.5861 55.3739 26.6718 55.0121 26.6718Z" fill="white"/>
<path d="M50.9444 28C50.4684 28 50.097 27.9048 49.8304 27.7144C49.5638 27.524 49.4305 27.2669 49.4305 26.9432C49.4305 26.7289 49.4829 26.5433 49.5876 26.3862C49.6971 26.2243 49.8566 26.1005 50.0661 26.0148L50.4231 26.3362C50.3232 26.379 50.2446 26.4457 50.1875 26.5361C50.1304 26.6218 50.1018 26.717 50.1018 26.8218C50.1018 26.9789 50.1637 27.1122 50.2875 27.2217C50.416 27.3359 50.6088 27.393 50.8659 27.393H51.3657C51.6276 27.393 51.8299 27.3502 51.9727 27.2645C52.1203 27.1836 52.1941 27.0622 52.1941 26.9003C52.1941 26.7765 52.1441 26.6789 52.0441 26.6075C51.9489 26.5409 51.8085 26.5076 51.6228 26.5076H50.6945C50.4945 26.5076 50.3136 26.4742 50.1518 26.4076C49.9947 26.3362 49.8709 26.2386 49.7804 26.1148C49.69 25.991 49.6448 25.8482 49.6448 25.6863C49.6448 25.515 49.6948 25.3626 49.7947 25.2293C49.8995 25.0913 50.0542 24.9818 50.2589 24.9008L50.6445 25.2293C50.5255 25.2436 50.435 25.2864 50.3732 25.3579C50.316 25.4293 50.2875 25.5054 50.2875 25.5864C50.2875 25.6911 50.3279 25.772 50.4089 25.8292C50.4945 25.8863 50.6159 25.9149 50.773 25.9149H51.68C52.0418 25.9149 52.3274 26.0053 52.5369 26.1862C52.7511 26.3624 52.8582 26.598 52.8582 26.8932C52.8582 27.2312 52.7225 27.5001 52.4512 27.7001C52.1798 27.9 51.8156 28 51.3586 28H50.9444ZM51.1729 25.4364C50.8825 25.4364 50.6278 25.3817 50.4089 25.2722C50.1899 25.1627 50.0185 25.0127 49.8947 24.8223C49.7757 24.6271 49.7162 24.4057 49.7162 24.1582C49.7162 23.9059 49.7757 23.6845 49.8947 23.4941C50.0185 23.2989 50.1899 23.1489 50.4089 23.0442C50.6278 22.9347 50.8825 22.8799 51.1729 22.8799C51.4633 22.8799 51.7157 22.9347 51.9299 23.0442C52.1489 23.1489 52.3203 23.2989 52.444 23.4941C52.5678 23.6845 52.6297 23.9059 52.6297 24.1582C52.6297 24.4057 52.5678 24.6271 52.444 24.8223C52.3203 25.0127 52.1489 25.1627 51.9299 25.2722C51.7157 25.3817 51.4633 25.4364 51.1729 25.4364ZM51.1729 24.8437C51.4062 24.8437 51.5943 24.7818 51.7371 24.658C51.8847 24.5295 51.9585 24.3629 51.9585 24.1582C51.9585 23.9535 51.8847 23.7892 51.7371 23.6654C51.5943 23.5369 51.4062 23.4726 51.1729 23.4726C50.9349 23.4726 50.7445 23.5369 50.6017 23.6654C50.4588 23.7892 50.3874 23.9535 50.3874 24.1582C50.3874 24.3629 50.4588 24.5295 50.6017 24.658C50.7445 24.7818 50.9349 24.8437 51.1729 24.8437ZM52.187 23.4655L51.7228 23.2156C51.7228 23.0204 51.7633 22.8466 51.8442 22.6943C51.9251 22.5372 52.0322 22.4158 52.1655 22.3301C52.3036 22.2396 52.4559 22.1944 52.6226 22.1944C52.6702 22.1944 52.7154 22.1968 52.7582 22.2015C52.8058 22.2015 52.8416 22.2063 52.8654 22.2158V22.8371L52.8296 22.9156C52.782 22.9014 52.7225 22.8942 52.6511 22.8942C52.4988 22.8942 52.3821 22.949 52.3012 23.0585C52.225 23.1632 52.187 23.2989 52.187 23.4655Z" fill="white"/>
<path d="M46.9807 26.6718C46.7379 26.6718 46.5189 26.6242 46.3237 26.529C46.1333 26.4337 45.9833 26.3028 45.8738 26.1362C45.7643 25.9648 45.7096 25.7696 45.7096 25.5506C45.7096 25.2222 45.8238 24.9603 46.0524 24.7651C46.2809 24.5652 46.6046 24.4486 47.0235 24.4152L48.4089 24.301V24.9151L47.1449 25.0151C46.9021 25.0341 46.7236 25.0865 46.6094 25.1722C46.4951 25.2579 46.438 25.3745 46.438 25.5221C46.438 25.6649 46.4999 25.7839 46.6236 25.8791C46.7474 25.9696 46.9045 26.0148 47.0949 26.0148C47.2949 26.0148 47.4758 25.9672 47.6377 25.872C47.8043 25.7768 47.9352 25.6506 48.0304 25.4935C48.1256 25.3317 48.1732 25.1579 48.1732 24.9722V24.3867C48.1732 24.1343 48.0923 23.9273 47.9304 23.7654C47.7733 23.6035 47.5639 23.5226 47.302 23.5226C47.083 23.5226 46.8998 23.575 46.7522 23.6797C46.6094 23.7844 46.5141 23.9225 46.4665 24.0939H46.388L45.7739 23.9225C45.8691 23.6035 46.05 23.3488 46.3166 23.1584C46.5832 22.968 46.9117 22.8728 47.302 22.8728C47.8019 22.8728 48.1899 23.0204 48.466 23.3155C48.7421 23.6059 48.8802 24.0153 48.8802 24.5438V26.5718H48.2232V25.5292L48.4803 25.6078C48.4232 25.803 48.3208 25.9815 48.1732 26.1433C48.0304 26.3052 47.8567 26.4337 47.6519 26.529C47.4472 26.6242 47.2235 26.6718 46.9807 26.6718Z" fill="white"/>
<path d="M41.6825 26.5718V22.9799H42.3609V23.9439L42.1681 23.8797C42.2395 23.6749 42.3466 23.4988 42.4894 23.3512C42.6322 23.1989 42.7989 23.0822 42.9893 23.0013C43.1845 22.9204 43.3916 22.8799 43.6106 22.8799C43.8676 22.8799 44.0985 22.9347 44.3032 23.0442C44.5079 23.1537 44.6698 23.3179 44.7888 23.5369C44.9078 23.7511 44.9674 24.0201 44.9674 24.3438V26.5718H44.2533V24.5438C44.2533 24.301 44.2175 24.1082 44.1461 23.9653C44.0747 23.8178 43.9771 23.7106 43.8534 23.644C43.7343 23.5773 43.5939 23.544 43.432 23.544C43.2702 23.544 43.1083 23.5845 42.9464 23.6654C42.7893 23.7464 42.6584 23.8725 42.5537 24.0439C42.449 24.2153 42.3966 24.439 42.3966 24.7151V26.5718H41.6825Z" fill="white"/>
<path d="M38.8774 26.6718C38.6346 26.6718 38.4156 26.6242 38.2204 26.529C38.03 26.4337 37.8801 26.3028 37.7706 26.1362C37.6611 25.9648 37.6063 25.7696 37.6063 25.5506C37.6063 25.2222 37.7206 24.9603 37.9491 24.7651C38.1776 24.5652 38.5013 24.4486 38.9203 24.4152L40.3056 24.301V24.9151L39.0417 25.0151C38.7989 25.0341 38.6203 25.0865 38.5061 25.1722C38.3918 25.2579 38.3347 25.3745 38.3347 25.5221C38.3347 25.6649 38.3966 25.7839 38.5204 25.8791C38.6441 25.9696 38.8013 26.0148 38.9917 26.0148C39.1916 26.0148 39.3725 25.9672 39.5344 25.872C39.701 25.7768 39.8319 25.6506 39.9271 25.4935C40.0224 25.3317 40.07 25.1579 40.07 24.9722V24.3867C40.07 24.1343 39.989 23.9273 39.8272 23.7654C39.6701 23.6035 39.4606 23.5226 39.1988 23.5226C38.9798 23.5226 38.7965 23.575 38.6489 23.6797C38.5061 23.7844 38.4109 23.9225 38.3633 24.0939H38.2847L37.6706 23.9225C37.7658 23.6035 37.9467 23.3488 38.2133 23.1584C38.4799 22.968 38.8084 22.8728 39.1988 22.8728C39.6986 22.8728 40.0866 23.0204 40.3627 23.3155C40.6389 23.6059 40.7769 24.0153 40.7769 24.5438V26.5718H40.12V25.5292L40.377 25.6078C40.3199 25.803 40.2175 25.9815 40.07 26.1433C39.9271 26.3052 39.7534 26.4337 39.5487 26.529C39.344 26.6242 39.1202 26.6718 38.8774 26.6718Z" fill="white"/>
<path d="M33.8708 26.5718L33.878 26.4219L35.9488 21.5731H36.6344V21.7231L34.5635 26.5718H33.8708ZM31.6143 26.5718V21.5731H32.3284V26.5718H31.6143ZM33.878 26.5718L31.7999 21.7231V21.5731H32.4926L34.5635 26.4219V26.5718H33.878ZM36.1059 26.5718V21.5731H36.82V26.5718H36.1059Z" fill="white"/>
<path d="M27.4174 26.6718C27.1603 26.6718 26.927 26.6194 26.7176 26.5147C26.5081 26.4099 26.332 26.2695 26.1891 26.0934C26.0463 25.9172 25.944 25.722 25.8821 25.5078V24.0368C25.944 23.8178 26.0463 23.6226 26.1891 23.4512C26.332 23.275 26.5081 23.137 26.7176 23.037C26.927 22.9323 27.1603 22.8799 27.4174 22.8799C27.7411 22.8799 28.0315 22.9608 28.2886 23.1227C28.5457 23.2846 28.7504 23.5083 28.9027 23.794C29.0551 24.0796 29.1312 24.4057 29.1312 24.7723C29.1312 25.1388 29.0551 25.465 28.9027 25.7506C28.7504 26.0362 28.5457 26.2624 28.2886 26.429C28.0315 26.5908 27.7411 26.6718 27.4174 26.6718ZM25.5107 28V22.9799H26.1891V24.1724L26.0463 24.7723L26.2248 25.3721V28H25.5107ZM27.3317 26.0077C27.5459 26.0077 27.734 25.9553 27.8958 25.8506C28.0577 25.7458 28.1839 25.6006 28.2743 25.415C28.3695 25.2293 28.4171 25.0151 28.4171 24.7723C28.4171 24.5295 28.3695 24.3153 28.2743 24.1296C28.1839 23.9439 28.0577 23.8011 27.8958 23.7011C27.734 23.5964 27.5459 23.544 27.3317 23.544C27.1175 23.544 26.9247 23.5964 26.7533 23.7011C26.5867 23.8011 26.4534 23.9439 26.3534 24.1296C26.2582 24.3153 26.2106 24.5295 26.2106 24.7723C26.2106 25.0151 26.2582 25.2293 26.3534 25.415C26.4534 25.6006 26.5867 25.7458 26.7533 25.8506C26.9247 25.9553 27.1175 26.0077 27.3317 26.0077Z" fill="white"/>
<path d="M22.9543 26.6718C22.5973 26.6718 22.2831 26.5908 22.0117 26.429C21.7403 26.2671 21.5261 26.0458 21.369 25.7649C21.2167 25.4792 21.1405 25.1484 21.1405 24.7723C21.1405 24.4009 21.2167 24.0725 21.369 23.7868C21.5261 23.5012 21.7403 23.2798 22.0117 23.1227C22.2831 22.9608 22.5973 22.8799 22.9543 22.8799C23.3114 22.8799 23.6256 22.9608 23.8969 23.1227C24.1683 23.2798 24.3801 23.5012 24.5325 23.7868C24.6896 24.0725 24.7681 24.4009 24.7681 24.7723C24.7681 25.1484 24.6896 25.4792 24.5325 25.7649C24.3801 26.0505 24.1683 26.2743 23.8969 26.4361C23.6256 26.5932 23.3114 26.6718 22.9543 26.6718ZM22.9543 26.0077C23.1733 26.0077 23.3637 25.9577 23.5256 25.8577C23.6922 25.7577 23.8208 25.6149 23.9112 25.4292C24.0064 25.2436 24.054 25.027 24.054 24.7794C24.054 24.5223 24.0064 24.3033 23.9112 24.1224C23.8208 23.9368 23.6922 23.794 23.5256 23.694C23.3637 23.5893 23.1733 23.5369 22.9543 23.5369C22.7353 23.5369 22.5425 23.5893 22.3759 23.694C22.214 23.794 22.0855 23.9368 21.9903 24.1224C21.8998 24.3033 21.8546 24.52 21.8546 24.7723C21.8546 25.0246 21.8998 25.2436 21.9903 25.4292C22.0855 25.6149 22.214 25.7577 22.3759 25.8577C22.5425 25.9577 22.7353 26.0077 22.9543 26.0077Z" fill="white"/>
<path d="M17.1572 26.5718V21.4303L17.8499 21.3446L17.8713 21.4017V23.9439L17.6428 23.8797C17.7142 23.6749 17.8213 23.4988 17.9642 23.3512C18.107 23.1989 18.2736 23.0822 18.464 23.0013C18.6592 22.9204 18.8663 22.8799 19.0853 22.8799C19.3424 22.8799 19.5733 22.9347 19.778 23.0442C19.9827 23.1537 20.1445 23.3179 20.2636 23.5369C20.3826 23.7511 20.4421 24.0201 20.4421 24.3438V26.5718H19.728V24.5438C19.728 24.301 19.6923 24.1082 19.6209 23.9653C19.5495 23.8178 19.4519 23.7107 19.3281 23.644C19.2091 23.5774 19.0686 23.544 18.9068 23.544C18.7449 23.544 18.583 23.5845 18.4212 23.6654C18.2641 23.7464 18.1332 23.8725 18.0284 24.0439C17.9237 24.2153 17.8713 24.439 17.8713 24.7152V26.5718H17.1572Z" fill="white"/>
<path d="M14.5135 26.6718C14.1707 26.6718 13.8613 26.6099 13.5852 26.4861C13.3091 26.3623 13.0782 26.1886 12.8925 25.9648C12.7116 25.7411 12.5902 25.4792 12.5283 25.1793L13.1781 25.0151L13.2567 25.0294C13.3186 25.215 13.409 25.3816 13.5281 25.5292C13.6518 25.672 13.7994 25.7863 13.9708 25.872C14.1422 25.9529 14.3278 25.9934 14.5278 25.9934C14.7325 25.9934 14.911 25.9601 15.0634 25.8934C15.2205 25.8268 15.3443 25.7363 15.4347 25.6221C15.5252 25.503 15.5704 25.3674 15.5704 25.215C15.5704 25.0151 15.5133 24.8604 15.399 24.7509C15.2847 24.6414 15.1181 24.5581 14.8991 24.5009L13.9708 24.2438C13.5614 24.1344 13.2496 23.9582 13.0353 23.7154C12.8211 23.4679 12.714 23.1822 12.714 22.8585C12.714 22.5871 12.783 22.3491 12.9211 22.1444C13.0639 21.9349 13.2615 21.7707 13.5138 21.6517C13.7661 21.5327 14.0565 21.4731 14.385 21.4731C14.7039 21.4731 14.9896 21.5327 15.2419 21.6517C15.499 21.7659 15.7108 21.9278 15.8774 22.1373C16.0488 22.3467 16.1607 22.5967 16.2131 22.8871L15.5847 23.0227L15.5061 23.0085C15.4442 22.7419 15.3133 22.5324 15.1134 22.3801C14.9134 22.2277 14.6682 22.1515 14.3778 22.1515C14.1017 22.1515 13.8803 22.2182 13.7137 22.3515C13.5471 22.48 13.4638 22.649 13.4638 22.8585C13.4638 23.0346 13.5233 23.1798 13.6423 23.2941C13.7661 23.4084 13.9422 23.4988 14.1707 23.5655L15.0991 23.8154C15.4942 23.9201 15.7965 24.0891 16.006 24.3224C16.2202 24.5557 16.3273 24.8413 16.3273 25.1793C16.3273 25.4792 16.2512 25.7411 16.0988 25.9648C15.9465 26.1886 15.7346 26.3623 15.4633 26.4861C15.1919 26.6099 14.8753 26.6718 14.5135 26.6718Z" fill="white"/>
<path d="M9.75288 23.0799C9.75288 22.818 9.67433 22.6133 9.51723 22.4657C9.36489 22.3134 9.14828 22.2372 8.8674 22.2372H7.41064V21.5731H8.91024C9.39107 21.5731 9.77192 21.7112 10.0528 21.9873C10.3384 22.2587 10.4813 22.6228 10.4813 23.0799H9.75288ZM7.03931 26.5718V21.5731H7.73912V26.5718H7.03931ZM7.41064 24.5866V23.9296H8.8674C9.14828 23.9296 9.36489 23.8535 9.51723 23.7011C9.67433 23.5488 9.75288 23.3417 9.75288 23.0799H10.4813C10.4813 23.5369 10.3384 23.9035 10.0528 24.1796C9.77192 24.4509 9.39107 24.5866 8.91024 24.5866H7.41064Z" fill="white"/>
<path d="M5.24011 26.5718V21.5731H5.95421V26.5718H5.24011Z" fill="white"/>
<path d="M1.93521 26.5718L1.98519 26.4219L3.82757 21.5731H4.58451V21.6302L2.64931 26.5718H1.93521ZM1.93521 26.5718L0 21.6302V21.5731H0.756945L2.59932 26.4219L2.64931 26.5718H1.93521Z" fill="white"/>
<defs>
<linearGradient id="paint0_linear_1671_57139" x1="33.9771" y1="0.304016" x2="33.9771" y2="15.7871" gradientUnits="userSpaceOnUse">
<stop stop-color="white"/>
<stop offset="1" stop-color="white"/>
</linearGradient>
<linearGradient id="paint1_linear_1671_57139" x1="17.9525" y1="0" x2="17.9525" y2="15.9826" gradientUnits="userSpaceOnUse">
<stop stop-color="white"/>
<stop offset="1" stop-color="white"/>
</linearGradient>
<linearGradient id="paint2_linear_1671_57139" x1="7.1661" y1="0.304016" x2="7.1661" y2="15.7871" gradientUnits="userSpaceOnUse">
<stop stop-color="white"/>
<stop offset="1" stop-color="white"/>
</linearGradient>
</defs>
</svg>
